<svg xmlns="http://www.w3.org/2000/svg" xmlns:xlink="http://www.w3.org/1999/xlink" contentStyleType="text/css" height="381px" preserveAspectRatio="none" style="width:285px;height:381px;background:#FFFFFF;" version="1.1" viewBox="0 0 285 381" width="285px" zoomAndPan="magnify"><defs/><g><!--class Conta--><g id="elem_Conta"><rect codeLine="1" fill="#F1F1F1" height="194.6719" id="Conta" rx="2.5" ry="2.5" style="stroke:#181818;stroke-width:0.5;" width="271" x="7" y="7"/><ellipse cx="117.75" cy="23" fill="#ADD1B2" rx="11" ry="11" style="stroke:#181818;stroke-width:1.0;"/><path d="M120.7188,28.6406 Q120.1406,28.9375 119.5,29.0781 Q118.8594,29.2344 118.1563,29.2344 Q115.6563,29.2344 114.3281,27.5938 Q113.0156,25.9375 113.0156,22.8125 Q113.0156,19.6875 114.3281,18.0313 Q115.6563,16.375 118.1563,16.375 Q118.8594,16.375 119.5,16.5313 Q120.1563,16.6875 120.7188,16.9844 L120.7188,19.7031 Q120.0938,19.125 119.5,18.8594 Q118.9063,18.5781 118.2813,18.5781 Q116.9375,18.5781 116.25,19.6563 Q115.5625,20.7188 115.5625,22.8125 Q115.5625,24.9063 116.25,25.9844 Q116.9375,27.0469 118.2813,27.0469 Q118.9063,27.0469 119.5,26.7813 Q120.0938,26.5 120.7188,25.9219 L120.7188,28.6406 Z " fill="#000000"/><text fill="#000000" font-family="sans-serif" font-size="14" lengthAdjust="spacing" textLength="41" x="138.25" y="27.8467">Conta</text><line style="stroke:#181818;stroke-width:0.5;" x1="8" x2="277" y1="39" y2="39"/><ellipse cx="18" cy="52.6484" fill="none" rx="3" ry="3" style="stroke:#038048;stroke-width:1.0;"/><text fill="#000000" font-family="sans-serif" font-size="14" lengthAdjust="spacing" textLength="164" x="27" y="55.9951">cardHolderName: String</text><ellipse cx="18" cy="68.9453" fill="none" rx="3" ry="3" style="stroke:#038048;stroke-width:1.0;"/><text fill="#000000" font-family="sans-serif" font-size="14" lengthAdjust="spacing" textLength="137" x="27" y="72.292">accountNumber: int</text><ellipse cx="18" cy="85.2422" fill="none" rx="3" ry="3" style="stroke:#038048;stroke-width:1.0;"/><text fill="#000000" font-family="sans-serif" font-size="14" lengthAdjust="spacing" textLength="76" x="27" y="88.5889">agency: int</text><ellipse cx="18" cy="101.5391" fill="none" rx="3" ry="3" style="stroke:#038048;stroke-width:1.0;"/><text fill="#000000" font-family="sans-serif" font-size="14" lengthAdjust="spacing" textLength="111" x="27" y="104.8857">balance: double</text><ellipse cx="18" cy="117.8359" fill="none" rx="3" ry="3" style="stroke:#038048;stroke-width:1.0;"/><text fill="#000000" font-family="sans-serif" font-size="14" lengthAdjust="spacing" textLength="132" x="27" y="121.1826">openingDate: Date</text><line style="stroke:#181818;stroke-width:0.5;" x1="8" x2="277" y1="128.4844" y2="128.4844"/><ellipse cx="18" cy="142.1328" fill="#84BE84" rx="3" ry="3" style="stroke:#038048;stroke-width:1.0;"/><text fill="#000000" font-family="sans-serif" font-size="14" lengthAdjust="spacing" textLength="245" x="27" y="145.4795">withdraw(double amount) : boolean</text><ellipse cx="18" cy="158.4297" fill="#84BE84" rx="3" ry="3" style="stroke:#038048;stroke-width:1.0;"/><text fill="#000000" font-family="sans-serif" font-size="14" lengthAdjust="spacing" textLength="208" x="27" y="161.7764">deposit(double amount) : void</text><ellipse cx="18" cy="174.7266" fill="#84BE84" rx="3" ry="3" style="stroke:#038048;stroke-width:1.0;"/><text fill="#000000" font-family="sans-serif" font-size="14" lengthAdjust="spacing" textLength="165" x="27" y="178.0732">calculateYield() : double</text><ellipse cx="18" cy="191.0234" fill="#84BE84" rx="3" ry="3" style="stroke:#038048;stroke-width:1.0;"/><text fill="#000000" font-family="sans-serif" font-size="14" lengthAdjust="spacing" textLength="217" x="27" y="194.3701">retrieveDataToPrinting() : String</text></g><!--class Date--><g id="elem_Date"><rect codeLine="13" fill="#F1F1F1" height="113.1875" id="Date" rx="2.5" ry="2.5" style="stroke:#181818;stroke-width:0.5;" width="244" x="20.5" y="261.67"/><ellipse cx="121.75" cy="277.67" fill="#ADD1B2" rx="11" ry="11" style="stroke:#181818;stroke-width:1.0;"/><path d="M124.7188,283.3106 Q124.1406,283.6075 123.5,283.7481 Q122.8594,283.9044 122.1563,283.9044 Q119.6563,283.9044 118.3281,282.2638 Q117.0156,280.6075 117.0156,277.4825 Q117.0156,274.3575 118.3281,272.7013 Q119.6563,271.045 122.1563,271.045 Q122.8594,271.045 123.5,271.2013 Q124.1563,271.3575 124.7188,271.6544 L124.7188,274.3731 Q124.0938,273.795 123.5,273.5294 Q122.9063,273.2481 122.2813,273.2481 Q120.9375,273.2481 120.25,274.3263 Q119.5625,275.3888 119.5625,277.4825 Q119.5625,279.5763 120.25,280.6544 Q120.9375,281.7169 122.2813,281.7169 Q122.9063,281.7169 123.5,281.4513 Q124.0938,281.17 124.7188,280.5919 L124.7188,283.3106 Z " fill="#000000"/><text fill="#000000" font-family="sans-serif" font-size="14" lengthAdjust="spacing" textLength="33" x="142.25" y="282.5167">Date</text><line style="stroke:#181818;stroke-width:0.5;" x1="21.5" x2="263.5" y1="293.67" y2="293.67"/><ellipse cx="31.5" cy="307.3184" fill="none" rx="3" ry="3" style="stroke:#038048;stroke-width:1.0;"/><text fill="#000000" font-family="sans-serif" font-size="14" lengthAdjust="spacing" textLength="54" x="40.5" y="310.6651">day : int</text><ellipse cx="31.5" cy="323.6153" fill="none" rx="3" ry="3" style="stroke:#038048;stroke-width:1.0;"/><text fill="#000000" font-family="sans-serif" font-size="14" lengthAdjust="spacing" textLength="75" x="40.5" y="326.962">month : int</text><ellipse cx="31.5" cy="339.9122" fill="none" rx="3" ry="3" style="stroke:#038048;stroke-width:1.0;"/><text fill="#000000" font-family="sans-serif" font-size="14" lengthAdjust="spacing" textLength="59" x="40.5" y="343.2589">year : int</text><line style="stroke:#181818;stroke-width:0.5;" x1="21.5" x2="263.5" y1="350.5606" y2="350.5606"/><ellipse cx="31.5" cy="364.2091" fill="#84BE84" rx="3" ry="3" style="stroke:#038048;stroke-width:1.0;"/><text fill="#000000" font-family="sans-serif" font-size="14" lengthAdjust="spacing" textLength="218" x="40.5" y="367.5557">retrieveDateToPrinting() : String</text></g><!--reverse link Conta to Date--><g id="link_Conta_Date"><path codeLine="20" d="M142.5,214 C142.5,234.3 142.5,243.07 142.5,261.28 " fill="none" id="Conta-backto-Date" style="stroke:#181818;stroke-width:1.0;"/><polygon fill="#181818" points="142.5,202,138.5,208,142.5,214,146.5,208,142.5,202" style="stroke:#181818;stroke-width:1.0;"/></g><!--SRC=[TL112eCm4BpxYZtQ5Z_WjJtq98NsqkEQB1g8MObHaTA_TpKM0gKv138psTaPPN4OuCmku2i3EIU5Nb_PQl8LTbJ2FNZZciYXKZowK8rTJRu4uyAED-JKaW0rMdHAVciUQqiHv9wSZBfW46Az8poRq6gFSnwrWDtgSO0IQcPBwA9CKy-32R-gYOt-hcxLQ6Nmqv3L-Kgc_fua2aqarlZWcyGAiiucsqE-iqnjXQpRxNreN219rabLRGeiX3vz9oxqrsKh78v5iJbz0000]--></g></svg>